<svg version="1.1" viewBox="0.0 0.0 960.0 540.0" fill="none" stroke="none" stroke-linecap="square" stroke-miterlimit="10" xmlns:xlink="http://www.w3.org/1999/xlink" xmlns="http://www.w3.org/2000/svg"><clipPath id="ge98bcda54a_0_6.0"><path d="m0 0l960.0 0l0 540.0l-960.0 0l0 -540.0z" clip-rule="nonzero"/></clipPath><g clip-path="url(#ge98bcda54a_0_6.0)"><defs><linearGradient id="ge98bcda54a_0_6.1" gradientUnits="userSpaceOnUse" gradientTransform="matrix(23.242106579261463 0.0 0.0 23.242106579261463 0.0 0.0)" spreadMethod="pad" x1="1.7130817638910854E-6" y1="-0.008411760736123021" x2="-0.004731615683309229" y2="23.23369433654662"><stop offset="0.0" stop-color="#f4cccc"/><stop offset="0.15" stop-color="#e06666"/><stop offset="0.28" stop-color="#e06666"/><stop offset="0.6" stop-color="#fffcf2"/><stop offset="1.0" stop-color="#fffcf2"/></linearGradient></defs><path fill="url(#ge98bcda54a_0_6.1)" d="m0 0l960.0 0l0 540.0l-960.0 0z" fill-rule="evenodd"/><path fill="#000000" fill-opacity="0.0" d="m95.41732 47.92126l576.09454 0l0 74.3307l-576.09454 0z" fill-rule="evenodd"/><path fill="#fffcf2" d="m554.92206 91.08188l-9.453125 0l-0.71875 2.09375q-0.3125 0.890625 -0.515625 1.71875q-0.203125 0.828125 -0.203125 1.765625q0 2.171875 2.3125 2.328125l0 1.453125l-9.453125 0l0 -1.453125q0.8125 -0.09375 1.421875 -0.578125q0.625 -0.484375 1.140625 -1.328125q0.515625 -0.84375 1.078125 -2.421875l9.234375 -24.578125l5.90625 0l7.3125 24.78125q0.484375 1.65625 0.8125 2.359375q0.328125 0.703125 0.859375 1.140625q0.53125 0.421875 1.484375 0.625l0 1.453125l-12.21875 0l0 -1.453125q1.15625 -0.140625 1.703125 -0.640625q0.5625 -0.515625 0.5625 -1.453125q0 -0.6875 -0.15625 -1.515625q-0.15625 -0.84375 -0.515625 -2.125l-0.59375 -2.171875zm-8.609375 -2.59375l7.96875 0l-3.546875 -12.453125l-4.421875 12.453125zm23.481018 -12.109375q0 -1.59375 -0.03125 -2.421875q-0.015625 -0.84375 -0.125 -1.46875q-0.109375 -0.625 -0.359375 -0.96875q-0.234375 -0.359375 -0.640625 -0.578125q-0.40625 -0.21875 -1.34375 -0.421875l0 -1.46875l6.171875 -0.296875l2.734375 0l0 12.671875l0.015625 0.03125q1.328125 -1.21875 2.3125 -1.875q1.0 -0.671875 2.125 -1.0625q1.140625 -0.390625 2.421875 -0.390625q3.9375 0 5.90625 2.78125q1.96875 2.78125 1.96875 8.3125q0 3.828125 -1.15625 6.40625q-1.15625 2.578125 -3.46875 3.875q-2.296875 1.296875 -5.65625 1.296875q-3.5 0 -6.40625 -1.265625l-1.625 1.265625l-2.84375 -0.40625l0 -24.015625zm6.40625 16.796875q0 2.734375 0.9375 4.03125q0.9375 1.28125 2.90625 1.28125q2.03125 0 3.109375 -2.125q1.078125 -2.140625 1.078125 -6.109375q0 -4.359375 -0.953125 -6.5q-0.953125 -2.140625 -2.96875 -2.140625q-0.96875 0 -1.921875 0.515625q-0.953125 0.5 -1.578125 1.4375q-0.609375 0.9375 -0.609375 2.0625l0 7.546875zm29.521667 7.625q-3.25 0 -5.609375 -1.140625q-2.359375 -1.140625 -3.6875 -3.65625q-1.328125 -2.515625 -1.328125 -6.390625q0 -2.953125 0.8125 -5.125q0.828125 -2.171875 2.28125 -3.578125q1.46875 -1.421875 3.484375 -2.09375q2.03125 -0.6875 4.390625 -0.6875q5.359375 0 8.078125 2.828125q2.734375 2.8125 2.734375 8.265625q0 3.84375 -1.359375 6.453125q-1.34375 2.59375 -3.84375 3.859375q-2.5 1.265625 -5.953125 1.265625zm-3.890625 -11.671875q0 4.6875 1.046875 7.03125q1.046875 2.328125 3.171875 2.328125q1.171875 0 1.953125 -0.59375q0.796875 -0.59375 1.265625 -1.71875q0.484375 -1.140625 0.671875 -2.71875q0.203125 -1.578125 0.203125 -3.546875q0 -4.765625 -1.046875 -7.125q-1.046875 -2.359375 -3.109375 -2.359375q-1.515625 0 -2.421875 0.953125q-0.90625 0.953125 -1.328125 2.859375q-0.40625 1.90625 -0.40625 4.890625zm18.47876 -10.640625l8.609375 0l0 12.28125q0 2.125 0.125 3.328125q0.140625 1.1875 0.515625 1.890625q0.375 0.6875 0.90625 1.015625q0.546875 0.3125 1.390625 0.3125q0.8125 0 1.71875 -0.5q0.921875 -0.515625 1.546875 -1.421875q0.625 -0.921875 0.625 -1.96875l0 -8.546875q0 -1.609375 -0.0625 -2.390625q-0.0625 -0.796875 -0.25 -1.234375q-0.1875 -0.4375 -0.59375 -0.734375q-0.390625 -0.3125 -1.296875 -0.578125l0 -1.453125l8.625 0l0 15.484375q0 1.6875 0.046875 2.46875q0.0625 0.765625 0.265625 1.234375q0.203125 0.46875 0.640625 0.765625q0.4375 0.296875 1.484375 0.515625l0 1.484375l-6.015625 0.203125l-2.6875 0l0.203125 -3.1875l-0.265625 -0.0625q-2.0625 1.890625 -3.6875 2.65625q-1.609375 0.75 -3.234375 0.75q-2.34375 0 -3.75 -0.875q-1.40625 -0.875 -2.03125 -2.5625q-0.625 -1.703125 -0.625 -4.375l0 -8.109375q0 -1.234375 -0.03125 -1.890625q-0.03125 -0.671875 -0.09375 -1.03125q-0.0625 -0.375 -0.1875 -0.671875q-0.125 -0.296875 -0.34375 -0.53125q-0.203125 -0.25 -0.578125 -0.453125q-0.359375 -0.203125 -0.96875 -0.359375l0 -1.453125zm42.693542 19.296875q-1.953125 1.65625 -3.546875 2.34375q-1.59375 0.671875 -3.359375 0.671875q-3.296875 0 -4.9375 -1.78125q-1.625 -1.78125 -1.625 -5.390625l0 -12.375l-2.765625 0l0 -1.53125q1.359375 -0.21875 2.0 -0.65625q0.640625 -0.453125 0.984375 -1.1875q0.359375 -0.75 0.5625 -1.9375q0.21875 -1.203125 0.328125 -2.984375l5.296875 0l0 5.53125l6.3125 0l0 2.765625l-6.3125 0l0 9.984375q0 2.5 0.234375 3.703125q0.234375 1.1875 0.78125 1.75q0.546875 0.5625 1.375 0.5625q0.609375 0 1.09375 -0.109375q0.5 -0.109375 1.03125 -0.390625q0.546875 -0.296875 1.140625 -0.828125l1.40625 1.859375z" fill-rule="nonzero"/><path fill="#fffcf2" d="m0 122.25197l728.8189 0l0 11.433075l-728.8189 0z" fill-rule="evenodd"/><path stroke="#ffffff" stroke-width="1.0" stroke-linejoin="round" stroke-linecap="butt" d="m0 122.25197l728.8189 0l0 11.433075l-728.8189 0z" fill-rule="evenodd"/><path fill="#fffcf2" d="m728.8189 122.25197l0 459.02362l-11.433105 0l0 -459.02362z" fill-rule="evenodd"/><path stroke="#ffffff" stroke-width="1.0" stroke-linejoin="round" stroke-linecap="butt" d="m728.8189 122.25197l0 459.02362l-11.433105 0l0 -459.02362z" fill-rule="evenodd"/></g></svg>