<svg version="1.1" viewBox="0.0 0.0 960.0 540.0" fill="none" stroke="none" stroke-linecap="square" stroke-miterlimit="10" xmlns:xlink="http://www.w3.org/1999/xlink" xmlns="http://www.w3.org/2000/svg"><clipPath id="ge98bcda54a_0_0.0"><path d="m0 0l960.0 0l0 540.0l-960.0 0l0 -540.0z" clip-rule="nonzero"/></clipPath><g clip-path="url(#ge98bcda54a_0_0.0)"><defs><linearGradient id="ge98bcda54a_0_0.1" gradientUnits="userSpaceOnUse" gradientTransform="matrix(23.242106579261463 0.0 0.0 23.242106579261463 0.0 0.0)" spreadMethod="pad" x1="1.7130817638910854E-6" y1="-0.008411760736123021" x2="-0.004731615683309229" y2="23.23369433654662"><stop offset="0.0" stop-color="#c9daf8"/><stop offset="0.15" stop-color="#6d9eeb"/><stop offset="0.28" stop-color="#6d9eeb"/><stop offset="0.6" stop-color="#fffcf2"/><stop offset="1.0" stop-color="#fffcf2"/></linearGradient></defs><path fill="url(#ge98bcda54a_0_0.1)" d="m0 0l960.0 0l0 540.0l-960.0 0z" fill-rule="evenodd"/><path fill="#000000" fill-opacity="0.0" d="m287.5328 54.160107l576.0945 0l0 74.3307l-576.0945 0z" fill-rule="evenodd"/><path fill="#fffcf2" d="m310.2828 106.6801l-11.625 0l0 -1.453125q0.8125 -0.234375 1.28125 -0.484375q0.484375 -0.25 0.71875 -0.703125q0.234375 -0.453125 0.296875 -1.15625q0.078125 -0.703125 0.078125 -1.765625l0 -19.078125q0 -1.03125 -0.0625 -1.734375q-0.0625 -0.71875 -0.296875 -1.15625q-0.21875 -0.4375 -0.703125 -0.71875q-0.46875 -0.28125 -1.3125 -0.5l0 -1.46875l12.90625 0q2.609375 0 4.4375 0.375q1.828125 0.359375 3.203125 1.109375q1.140625 0.625 1.9375 1.5625q0.796875 0.9375 1.21875 2.203125q0.4375 1.25 0.4375 2.90625q0 2.171875 -0.765625 3.71875q-0.75 1.546875 -2.046875 2.578125q-1.296875 1.03125 -3.46875 1.9375l0 0.21875q1.640625 0.703125 2.703125 1.890625q1.078125 1.1875 1.953125 3.0l1.390625 3.015625q0.921875 2.0 1.84375 3.015625q0.921875 1.0 2.1875 1.234375l0 1.453125l-8.53125 0q-1.28125 -1.765625 -2.890625 -5.265625l-1.734375 -3.78125q-0.765625 -1.6875 -1.328125 -2.390625q-0.546875 -0.71875 -1.140625 -0.984375q-0.578125 -0.265625 -1.796875 -0.265625l-1.28125 0l0 7.125q0 1.671875 0.140625 2.34375q0.15625 0.65625 0.59375 1.0625q0.453125 0.390625 1.65625 0.703125l0 1.453125zm-2.390625 -27.578125l0 12.3125l2.1875 0q1.765625 0 2.921875 -0.46875q1.15625 -0.484375 1.828125 -1.328125q0.671875 -0.859375 0.921875 -2.015625q0.265625 -1.15625 0.265625 -2.53125q0 -3.0 -1.421875 -4.5q-1.421875 -1.515625 -4.203125 -1.515625q-1.90625 0 -2.5 0.046875zm39.749176 23.546875q-2.265625 2.390625 -4.484375 3.390625q-2.203125 1.0 -5.078125 1.0q-5.15625 0 -7.765625 -2.828125q-2.59375 -2.828125 -2.59375 -8.375q0 -3.59375 1.328125 -6.1875q1.34375 -2.59375 3.796875 -3.9375q2.46875 -1.34375 5.71875 -1.34375q2.015625 0 3.53125 0.46875q1.515625 0.46875 2.59375 1.296875q1.09375 0.828125 1.796875 2.0q0.84375 1.390625 1.265625 3.1875q0.4375 1.84375 0.46875 4.453125l-14.03125 0q0.015625 4.0 1.421875 5.890625q1.40625 1.890625 4.28125 1.890625q1.6875 0 3.03125 -0.625q1.34375 -0.625 2.921875 -2.21875l1.796875 1.9375zm-5.984375 -9.265625q-0.078125 -3.390625 -0.875 -5.046875q-0.796875 -1.671875 -2.578125 -1.671875q-1.703125 0 -2.71875 1.734375q-1.0 1.71875 -1.1875 4.984375l7.359375 0zm12.870941 7.328125q0.53125 2.0 1.671875 3.015625q1.15625 1.0 3.078125 1.0q1.65625 0 2.5 -0.75q0.859375 -0.75 0.859375 -2.1875q0 -0.90625 -0.390625 -1.546875q-0.375 -0.640625 -1.28125 -1.21875q-0.890625 -0.59375 -3.0625 -1.546875q-1.21875 -0.53125 -2.296875 -1.171875q-1.0625 -0.640625 -1.859375 -1.453125q-0.796875 -0.8125 -1.265625 -1.796875q-0.46875 -1.0 -0.46875 -2.21875q0 -2.0 1.15625 -3.453125q1.15625 -1.46875 3.28125 -2.234375q2.140625 -0.78125 4.890625 -0.78125q1.609375 0 3.15625 0.140625q1.5625 0.125 4.015625 0.5625l0 5.171875l-2.921875 0q-0.515625 -1.421875 -1.125 -2.1875q-0.609375 -0.78125 -1.34375 -1.078125q-0.71875 -0.3125 -1.734375 -0.3125q-1.46875 0 -2.328125 0.671875q-0.859375 0.65625 -0.859375 1.859375q0 0.84375 0.296875 1.4375q0.3125 0.59375 1.109375 1.171875q0.796875 0.5625 3.078125 1.5q2.078125 0.875 3.390625 1.8125q1.3125 0.9375 1.984375 2.171875q0.6875 1.21875 0.6875 2.859375q0 1.796875 -0.671875 3.09375q-0.65625 1.296875 -1.859375 2.140625q-1.1875 0.828125 -2.859375 1.25q-1.671875 0.40625 -3.671875 0.40625q-3.65625 0 -8.125 -1.046875l0 -5.28125l2.96875 0zm37.976776 1.9375q-2.265625 2.390625 -4.484375 3.390625q-2.203125 1.0 -5.078125 1.0q-5.15625 0 -7.765625 -2.828125q-2.59375 -2.828125 -2.59375 -8.375q0 -3.59375 1.328125 -6.1875q1.34375 -2.59375 3.796875 -3.9375q2.46875 -1.34375 5.71875 -1.34375q2.015625 0 3.53125 0.46875q1.515625 0.46875 2.59375 1.296875q1.09375 0.828125 1.796875 2.0q0.84375 1.390625 1.265625 3.1875q0.4375 1.84375 0.46875 4.453125l-14.03125 0q0.015625 4.0 1.421875 5.890625q1.40625 1.890625 4.28125 1.890625q1.6875 0 3.03125 -0.625q1.34375 -0.625 2.921875 -2.21875l1.796875 1.9375zm-5.984375 -9.265625q-0.078125 -3.390625 -0.875 -5.046875q-0.796875 -1.671875 -2.578125 -1.671875q-1.703125 0 -2.71875 1.734375q-1.0 1.71875 -1.1875 4.984375l7.359375 0zm23.089691 10.390625l-0.328125 -0.109375q-1.8125 1.78125 -3.53125 2.578125q-1.71875 0.796875 -3.640625 0.796875q-1.90625 0 -3.3125 -0.703125q-1.40625 -0.703125 -2.125 -1.9375q-0.71875 -1.234375 -0.71875 -2.859375q0 -3.25 3.1875 -5.109375q3.203125 -1.875 9.71875 -2.359375l0 -2.109375q0 -2.0625 -0.46875 -3.171875q-0.46875 -1.125 -1.203125 -1.578125q-0.71875 -0.453125 -1.734375 -0.453125q-1.015625 0 -1.765625 0.359375q-0.734375 0.34375 -1.34375 1.34375q-0.59375 0.984375 -0.875 2.71875l-4.1875 0l0 -4.015625q2.03125 -0.90625 3.375 -1.390625q1.359375 -0.5 2.671875 -0.8125q1.328125 -0.328125 2.359375 -0.453125q1.046875 -0.140625 2.078125 -0.140625q2.6875 0 4.28125 0.71875q1.609375 0.703125 2.40625 2.296875q0.796875 1.59375 0.796875 4.40625l0 8.625q0 1.46875 0.0625 2.265625q0.078125 0.796875 0.21875 1.1875q0.140625 0.375 0.359375 0.609375q0.21875 0.234375 0.546875 0.375q0.328125 0.140625 1.203125 0.375l0 1.453125l-8.234375 0l0.203125 -2.90625zm-0.734375 -7.546875q-3.421875 0.09375 -5.078125 1.296875q-1.640625 1.1875 -1.640625 3.484375q0 1.375 0.75 2.09375q0.75 0.71875 2.078125 0.71875q1.015625 0 1.921875 -0.53125q0.90625 -0.546875 1.4375 -1.453125q0.53125 -0.90625 0.53125 -1.921875l0 -3.6875zm20.16388 -8.34375l0.296875 0.078125q1.609375 -1.90625 3.3125 -2.75q1.703125 -0.84375 3.703125 -0.84375q1.34375 0 2.828125 0.296875l0 6.109375l-4.0 0q-0.390625 -1.296875 -1.0 -1.96875q-0.59375 -0.6875 -1.625 -0.6875q-0.484375 0 -1.078125 0.296875q-0.578125 0.296875 -1.078125 0.84375q-0.5 0.53125 -0.703125 1.09375q-0.203125 0.5625 -0.28125 1.140625q-0.0625 0.578125 -0.0625 1.734375l0 7.0625q0 2.09375 0.15625 2.9375q0.15625 0.84375 0.609375 1.328125q0.46875 0.46875 1.578125 0.671875l0 1.453125l-10.90625 0l0 -1.453125q1.0625 -0.296875 1.46875 -0.75q0.40625 -0.46875 0.546875 -1.265625q0.15625 -0.796875 0.15625 -2.90625l0 -9.09375q0 -1.640625 -0.0625 -2.421875q-0.046875 -0.796875 -0.265625 -1.265625q-0.203125 -0.46875 -0.640625 -0.765625q-0.4375 -0.3125 -1.5 -0.53125l0 -1.5l6.078125 -0.1875l2.78125 0l-0.3125 3.34375zm28.86087 13.125l1.703125 2.0625q-2.171875 2.125 -4.203125 3.046875q-2.015625 0.921875 -4.40625 0.921875q-4.796875 0 -7.328125 -2.828125q-2.515625 -2.828125 -2.515625 -8.203125q0 -3.625 1.375 -6.265625q1.390625 -2.65625 3.96875 -4.015625q2.59375 -1.359375 5.9375 -1.359375q1.796875 0 3.578125 0.265625q1.78125 0.25 3.25 0.6875l0 5.328125l-4.390625 0q-0.328125 -2.078125 -1.0 -3.03125q-0.65625 -0.953125 -1.890625 -0.953125q-0.828125 0 -1.578125 0.421875q-0.734375 0.40625 -1.296875 1.421875q-0.5625 1.0 -0.890625 2.703125q-0.328125 1.6875 -0.328125 4.265625q0 2.59375 0.484375 4.375q0.484375 1.78125 1.5625 2.75q1.09375 0.953125 2.859375 0.953125q1.28125 0 2.421875 -0.546875q1.140625 -0.5625 2.6875 -2.0zm12.747559 -13.359375q2.015625 -1.796875 3.59375 -2.53125q1.59375 -0.75 3.25 -0.75q2.4375 0 3.765625 0.90625q1.328125 0.890625 1.9375 2.578125q0.609375 1.671875 0.609375 4.359375l0 8.078125q0 0.96875 0.03125 1.828125q0.03125 0.84375 0.15625 1.359375q0.140625 0.5 0.375 0.828125q0.234375 0.3125 0.640625 0.546875q0.421875 0.21875 1.03125 0.375l0 1.453125l-10.734375 0l0 -1.453125q1.03125 -0.25 1.421875 -0.71875q0.390625 -0.46875 0.53125 -1.28125q0.140625 -0.8125 0.140625 -2.921875l0 -5.78125q0 -2.203125 -0.140625 -3.4375q-0.140625 -1.234375 -0.484375 -1.90625q-0.34375 -0.671875 -0.890625 -1.0q-0.53125 -0.328125 -1.421875 -0.328125q-0.84375 0 -1.765625 0.515625q-0.921875 0.515625 -1.53125 1.421875q-0.59375 0.890625 -0.59375 1.90625l0 8.59375q0 1.234375 0.03125 1.90625q0.03125 0.671875 0.09375 1.046875q0.0625 0.359375 0.1875 0.65625q0.125 0.28125 0.3125 0.53125q0.203125 0.234375 0.578125 0.4375q0.390625 0.203125 1.0 0.359375l0 1.453125l-10.84375 0l0 -1.453125q0.671875 -0.15625 1.046875 -0.359375q0.375 -0.21875 0.578125 -0.5q0.21875 -0.28125 0.375 -0.703125q0.15625 -0.4375 0.1875 -1.203125q0.046875 -0.765625 0.046875 -2.171875l0 -17.265625q0 -1.90625 -0.03125 -2.796875q-0.03125 -0.90625 -0.140625 -1.515625q-0.109375 -0.609375 -0.34375 -0.96875q-0.21875 -0.359375 -0.640625 -0.578125q-0.40625 -0.234375 -1.34375 -0.40625l0 -1.46875l6.140625 -0.296875l2.765625 0l0 12.625l0.078125 0.03125z" fill-rule="nonzero"/><path fill="#fffcf2" d="m231.1811 122.25197l728.8189 0l0 11.433075l-728.8189 0z" fill-rule="evenodd"/><path stroke="#ffffff" stroke-width="1.0" stroke-linejoin="round" stroke-linecap="butt" d="m231.1811 122.25197l728.8189 0l0 11.433075l-728.8189 0z" fill-rule="evenodd"/><path fill="#fffcf2" d="m242.61417 122.25197l0 459.02362l-11.43306 0l0 -459.02362z" fill-rule="evenodd"/><path stroke="#ffffff" stroke-width="1.0" stroke-linejoin="round" stroke-linecap="butt" d="m242.61417 122.25197l0 459.02362l-11.43306 0l0 -459.02362z" fill-rule="evenodd"/></g></svg>